#N canvas 161 161 778 520 10;
#X msg 173 64 debug;
#X obj 134 42 adc~;
#X obj 178 491 dac~;
#X floatatom 246 74 5 0 0 0 - - -, f 5;
#X obj 249 18 hsl 256 15 0 256 0 1 empty empty empty -2 -6 0 8 -262144
-1 -1 16100 1;
#X obj 169 182 tgl 15 1 empty empty empty 0 -6 0 8 -262144 -1 -1 1
1;
#X obj 270 180 tgl 15 0 empty empty empty 0 -6 0 8 -262144 -1 -1 0
1;
#X text 243 -1 separation threshold;
#X obj 144 96 aubiotss~ 0.015;
#X obj 245 359 *~ 1;
#X obj 245 387 *~ 1;
#X obj 144 360 *~ 1;
#X obj 144 385 *~ 1;
#X obj 169 340 / 68;
#X obj 246 51 / 256;
#X obj 173 437 *~;
#X obj 201 437 *~;
#X obj 209 269 tgl 15 1 empty empty empty 0 -6 0 8 -262144 -1 -1 1
1;
#X text 195 254 stereo;
#X obj 169 204 vsl 15 128 0 127 0 0 empty empty empty 0 -9 0 10 -262144
-1 -1 0 1;
#X obj 270 337 / 127;
#X obj 270 202 vsl 15 128 0 127 0 0 empty empty empty 0 -9 0 10 -262144
-1 -1 0 1;
#X text 160 151 transient;
#X text 275 151 steady state;
#X text 298 181 mute;
#X text 299 208 vol;
#X text 265 99 aubiotss~ implements a simple Transient / Steady-state
Separation (TSS).;
#X connect 0 0 8 0;
#X connect 1 0 8 0;
#X connect 1 1 8 0;
#X connect 3 0 8 1;
#X connect 4 0 14 0;
#X connect 5 0 12 1;
#X connect 6 0 9 1;
#X connect 8 0 11 0;
#X connect 8 1 9 0;
#X connect 9 0 10 0;
#X connect 10 0 2 1;
#X connect 10 0 16 0;
#X connect 11 0 12 0;
#X connect 12 0 2 0;
#X connect 12 0 15 0;
#X connect 13 0 11 1;
#X connect 14 0 3 0;
#X connect 15 0 2 1;
#X connect 16 0 2 0;
#X connect 17 0 16 1;
#X connect 17 0 15 1;
#X connect 19 0 13 0;
#X connect 20 0 10 1;
#X connect 21 0 20 0;
